<?xml version="1.0" encoding="UTF-8" standalone="no"?>
<svg
   class="ionicon"
   viewBox="0 0 512 512"
   version="1.1"
   id="svg6"
   sodipodi:docname="settings.svg"
   inkscape:version="1.1 (c68e22c387, 2021-05-23)"
   xmlns:inkscape="http://www.inkscape.org/namespaces/inkscape"
   xmlns:sodipodi="http://sodipodi.sourceforge.net/DTD/sodipodi-0.dtd"
   xmlns="http://www.w3.org/2000/svg"
   xmlns:svg="http://www.w3.org/2000/svg"
   xmlns:rdf="http://www.w3.org/1999/02/22-rdf-syntax-ns#"
   xmlns:cc="http://creativecommons.org/ns#"
   xmlns:dc="http://purl.org/dc/elements/1.1/">
  <defs
     id="defs10" />
  <sodipodi:namedview
     id="namedview8"
     pagecolor="#ffffff"
     bordercolor="#666666"
     borderopacity="1.0"
     inkscape:pageshadow="2"
     inkscape:pageopacity="0.0"
     inkscape:pagecheckerboard="0"
     showgrid="false"
     inkscape:zoom="0.8125"
     inkscape:cx="73.230769"
     inkscape:cy="52.307692"
     inkscape:window-width="1920"
     inkscape:window-height="1017"
     inkscape:window-x="-8"
     inkscape:window-y="-8"
     inkscape:window-maximized="1"
     inkscape:current-layer="svg6" />
  <title
     id="title2">Settings</title>
  <path
     d="M262.29 192.31a64 64 0 1057.4 57.4 64.13 64.13 0 00-57.4-57.4zM416.39 256a154.34 154.34 0 01-1.53 20.79l45.21 35.46a10.81 10.81 0 012.45 13.75l-42.77 74a10.81 10.81 0 01-13.14 4.59l-44.9-18.08a16.11 16.11 0 00-15.17 1.75A164.48 164.48 0 01325 400.8a15.94 15.94 0 00-8.82 12.14l-6.73 47.89a11.08 11.08 0 01-10.68 9.17h-85.54a11.11 11.11 0 01-10.69-8.87l-6.72-47.82a16.07 16.07 0 00-9-12.22 155.3 155.3 0 01-21.46-12.57 16 16 0 00-15.11-1.71l-44.89 18.07a10.81 10.81 0 01-13.14-4.58l-42.77-74a10.8 10.8 0 012.45-13.75l38.21-30a16.05 16.05 0 006-14.08c-.36-4.17-.58-8.33-.58-12.5s.21-8.27.58-12.35a16 16 0 00-6.07-13.94l-38.19-30A10.81 10.81 0 0149.48 186l42.77-74a10.81 10.81 0 0113.14-4.59l44.9 18.08a16.11 16.11 0 0015.17-1.75A164.48 164.48 0 01187 111.2a15.94 15.94 0 008.82-12.14l6.73-47.89A11.08 11.08 0 01213.23 42h85.54a11.11 11.11 0 0110.69 8.87l6.72 47.82a16.07 16.07 0 009 12.22 155.3 155.3 0 0121.46 12.57 16 16 0 0015.11 1.71l44.89-18.07a10.81 10.81 0 0113.14 4.58l42.77 74a10.8 10.8 0 01-2.45 13.75l-38.21 30a16.05 16.05 0 00-6.05 14.08c.33 4.14.55 8.3.55 12.47z"
     fill="none"
     stroke="currentColor"
     stroke-linecap="round"
     stroke-linejoin="round"
     stroke-width="32"
     id="path4"
     style="stroke:#e1a54b;stroke-opacity:1" />
  <metadata
     id="metadata827">
    <rdf:RDF>
      <cc:Work
         rdf:about="">
        <dc:title>Settings</dc:title>
      </cc:Work>
    </rdf:RDF>
  </metadata>
</svg>
