<?xml version="1.0" encoding="UTF-8" standalone="no"?>
<!-- Created with Inkscape (http://www.inkscape.org/) -->

<svg
   width="20.200001mm"
   height="20.200001mm"
   viewBox="0 0 20.200001 20.200001"
   version="1.1"
   id="svg5"
   inkscape:version="1.1 (c68e22c387, 2021-05-23)"
   sodipodi:docname="logoUNAletrasAtrayecto.svg"
   inkscape:export-filename="C:\Users\cesar\Documents\workspace\UNAWEB\pruebas-mobile\icons\logouna460px.webp"
   inkscape:export-xdpi="112.99806"
   inkscape:export-ydpi="112.99806"
   xmlns:inkscape="http://www.inkscape.org/namespaces/inkscape"
   xmlns:sodipodi="http://sodipodi.sourceforge.net/DTD/sodipodi-0.dtd"
   xmlns="http://www.w3.org/2000/svg"
   xmlns:svg="http://www.w3.org/2000/svg">
  <sodipodi:namedview
     id="namedview7"
     pagecolor="#505050"
     bordercolor="#ffffff"
     borderopacity="1"
     inkscape:pageshadow="0"
     inkscape:pageopacity="0"
     inkscape:pagecheckerboard="1"
     inkscape:document-units="mm"
     showgrid="false"
     showguides="false"
     inkscape:zoom="8"
     inkscape:cx="21.0625"
     inkscape:cy="39.9375"
     inkscape:window-width="1920"
     inkscape:window-height="1017"
     inkscape:window-x="-8"
     inkscape:window-y="-8"
     inkscape:window-maximized="1"
     inkscape:current-layer="layer2"
     width="102mm" />
  <defs
     id="defs2" />
  <g
     inkscape:groupmode="layer"
     id="layer2"
     inkscape:label="Capa 2"
     style="display:inline"
     transform="translate(-1.0001486,-0.99984218)">
    <ellipse
       style="display:inline;fill:none;fill-opacity:1;stroke:#f5a541;stroke-width:1.09091;stroke-miterlimit:4;stroke-dasharray:none;stroke-opacity:1"
       id="path939-3"
       cx="11.100149"
       cy="11.099843"
       inkscape:export-filename="C:\Users\cesar\Documents\workspace\UNAWEB\pruebas-mobile\icons\logouna60px.webp"
       inkscape:export-xdpi="14.97053"
       inkscape:export-ydpi="14.97053"
       rx="9.4546471"
       ry="9.4545021" />
    <path
       id="path1932"
       style="fill:#f4a541;fill-opacity:1;stroke:#ff8d00;stroke-width:0;stroke-linecap:butt;stroke-linejoin:miter;stroke-miterlimit:4;stroke-dasharray:none;stroke-opacity:1"
       d="M 16.228289,7.6550276 C 15.6859,7.660597 15.137948,7.8268865 14.700234,8.1319372 14.091235,8.5563579 13.788998,9.1844289 13.903923,9.7514607 l 0.56698,3.0712743 1.353241,-0.249727 -0.171871,-0.929649 1.607037,-0.29817 0.176236,0.930461 1.329079,-0.245361 -0.566269,-3.0819379 C 18.093709,8.3689051 17.579331,7.8956036 16.85547,7.7236797 16.651883,7.6753261 16.440528,7.6528479 16.228289,7.6550276 Z M 16.10596,8.9566784 c 0.07358,-10e-4 0.147391,0.00875 0.218467,0.029858 0.227445,0.067551 0.392097,0.240952 0.426681,0.4462399 l 0.142431,0.7221687 -1.341058,0.247494 -0.132888,-0.7202395 C 15.379583,9.481673 15.468623,9.2601659 15.655116,9.1138885 15.78333,9.0133207 15.944079,8.9588959 16.10596,8.9566784 Z" />
    <path
       style="fill:#f4a541;fill-opacity:1;stroke:#ff8d00;stroke-width:0;stroke-linecap:butt;stroke-linejoin:miter;stroke-miterlimit:4;stroke-dasharray:none;stroke-opacity:1"
       d="m 8.2656264,12.141197 c 0.1167262,0.613443 -0.175838,1.28716 -0.769679,1.729962 -0.5938438,0.4428 -1.3979743,0.586835 -2.1073247,0.377467 C 4.6792713,14.039262 4.1733816,13.50857 4.0700308,12.904134 L 3.5190092,9.923876 4.8722141,9.6741226 5.4011708,12.540481 c 0.1213097,0.351787 0.4904689,0.56959 0.8668442,0.502121 0.3763751,-0.06747 0.6467995,-0.400216 0.6400868,-0.776417 L 6.3814447,9.3955712 7.7225367,9.1480523 Z"
       id="path2654"
       sodipodi:nodetypes="cssccccscccc" />
    <path
       style="fill:#f4a541;fill-opacity:1;stroke:#ff8d00;stroke-width:0;stroke-linecap:butt;stroke-linejoin:miter;stroke-miterlimit:4;stroke-dasharray:none;stroke-opacity:1"
       d="M 8.5842825,8.9898458 9.4616889,13.747316 10.814893,13.497561 10.424657,11.381626 13.728184,12.985088 12.84613,8.2024134 11.492926,8.4521688 11.880159,10.551812 8.5842825,8.9898458"
       id="path2988"
       sodipodi:nodetypes="ccccccccc" />
    <g
       aria-label="WEB"
       transform="matrix(0.19309421,-0.03616994,0.03615634,0.19316686,1.0888474,1.0878692)"
       id="text3621"
       style="font-weight:800;font-stretch:condensed;font-size:34.5722px;line-height:1.25;font-family:'Inconsolata Condensed';-inkscape-font-specification:'Inconsolata Condensed,  Ultra-Bold Condensed';fill:#f4a541;fill-opacity:1;stroke:#ff8d00;stroke-width:0">
      <path
         d="M 24.423319,96.31031 22.210698,74.771829 h 3.14607 l 0.93345,12.584281 1.866899,-10.233371 h 2.005187 l 1.901471,10.198799 0.656872,-12.549709 h 2.973209 L 33.55038,96.31031 H 31.19947 L 29.055994,84.348329 26.843373,96.31031 Z"
         id="path860" />
      <path
         d="M 37.145876,96.31031 V 74.737257 h 11.339681 v 3.318931 h -7.675028 v 5.358691 h 6.257568 v 3.318932 h -6.257568 v 6.257568 h 7.605884 v 3.318931 z"
         id="path862" />
      <path
         d="M 50.594448,96.31031 V 74.771829 h 5.324119 q 1.452033,0 2.592915,0.345722 1.140883,0.345722 1.936044,1.037166 0.79516,0.656872 1.210027,1.659466 0.449438,1.002594 0.449438,2.35091 0,1.140882 -0.276577,2.108904 -0.276578,0.933449 -0.829733,1.590321 -0.518583,0.656872 -1.348316,0.968022 0.691444,0.345722 1.244599,0.864305 0.587728,0.518583 1.002594,1.210027 0.414866,0.656872 0.6223,1.486604 0.207433,0.795161 0.207433,1.72861 0,1.486605 -0.449439,2.627488 -0.414866,1.140882 -1.279171,1.936043 -0.829733,0.795161 -2.108904,1.210027 -1.279172,0.414866 -3.007782,0.414866 z m 3.699226,-3.353503 h 1.970615 q 0.829733,0 1.41746,-0.31115 0.6223,-0.345722 0.93345,-1.002594 0.31115,-0.656872 0.31115,-1.624893 0,-1.106311 -0.31115,-1.866899 -0.31115,-0.760588 -1.002594,-1.175455 -0.656872,-0.449438 -1.797754,-0.449438 h -1.521177 z m 0,-9.714789 h 1.41746 q 1.037166,0 1.624893,-0.311149 0.587728,-0.345722 0.829733,-0.968022 0.242006,-0.6223 0.242006,-1.452032 0,-0.587728 -0.138289,-1.037166 Q 58.131188,79.02421 57.820038,78.71306 57.543461,78.40191 57.05945,78.263622 56.610011,78.090761 55.987712,78.090761 h -1.694038 z"
         id="path864" />
    </g>
  </g>
</svg>
