<?xml version="1.0" encoding="UTF-8" standalone="no"?>
<svg
   class="ionicon"
   viewBox="0 0 512 512"
   version="1.1"
   id="svg12"
   sodipodi:docname="portada.svg"
   inkscape:version="1.1 (c68e22c387, 2021-05-23)"
   xmlns:inkscape="http://www.inkscape.org/namespaces/inkscape"
   xmlns:sodipodi="http://sodipodi.sourceforge.net/DTD/sodipodi-0.dtd"
   xmlns="http://www.w3.org/2000/svg"
   xmlns:svg="http://www.w3.org/2000/svg"
   xmlns:rdf="http://www.w3.org/1999/02/22-rdf-syntax-ns#"
   xmlns:cc="http://creativecommons.org/ns#"
   xmlns:dc="http://purl.org/dc/elements/1.1/">
  <defs
     id="defs16" />
  <sodipodi:namedview
     id="namedview14"
     pagecolor="#ffffff"
     bordercolor="#666666"
     borderopacity="1.0"
     inkscape:pageshadow="2"
     inkscape:pageopacity="0.0"
     inkscape:pagecheckerboard="0"
     showgrid="false"
     inkscape:zoom="1.625"
     inkscape:cx="255.69231"
     inkscape:cy="256.30769"
     inkscape:window-width="1920"
     inkscape:window-height="1017"
     inkscape:window-x="-8"
     inkscape:window-y="-8"
     inkscape:window-maximized="1"
     inkscape:current-layer="svg12" />
  <title
     id="title2">Newspaper</title>
  <path
     d="M368 415.86V72a24.07 24.07 0 00-24-24H72a24.07 24.07 0 00-24 24v352a40.12 40.12 0 0040 40h328"
     fill="none"
     stroke="currentColor"
     stroke-linejoin="round"
     stroke-width="32"
     id="path4"
     style="stroke:#e1a54b;stroke-opacity:1" />
  <path
     d="M416 464h0a48 48 0 01-48-48V128h72a24 24 0 0124 24v264a48 48 0 01-48 48z"
     fill="none"
     stroke="currentColor"
     stroke-linejoin="round"
     stroke-width="32"
     id="path6"
     style="stroke:#e1a54b;stroke-opacity:1" />
  <path
     fill="none"
     stroke="currentColor"
     stroke-linecap="round"
     stroke-linejoin="round"
     stroke-width="32"
     d="M240 128h64M240 192h64M112 256h192M112 320h192M112 384h192"
     id="path8"
     style="stroke:#e1a54b;stroke-opacity:1" />
  <path
     d="M176 208h-64a16 16 0 01-16-16v-64a16 16 0 0116-16h64a16 16 0 0116 16v64a16 16 0 01-16 16z"
     id="path10"
     style="stroke:#e1a54b;stroke-opacity:1;fill:#e1a54b;fill-opacity:1" />
  <metadata
     id="metadata833">
    <rdf:RDF>
      <cc:Work
         rdf:about="">
        <dc:title>Newspaper</dc:title>
      </cc:Work>
    </rdf:RDF>
  </metadata>
</svg>
